<svg version="1.1" xmlns="http://www.w3.org/2000/svg" viewBox="-5535.747456190751 -1753.325 11508.94745619075 3145.65"><desc>Created with Snap</desc><defs></defs><g><g transform="matrix(50.524,0,0,50.524,-5294.2286,-2714.2763)"><g><path fill="#143d59" d="M34.5,37.9L34.5,37.9c-0.6,0-1.1,0.5-1.1,1.1v23.4c0,0.6,0.5,1.1,1.1,1.1h0c0.6,0,1.1-0.5,1.1-1.1V38.9   C35.6,38.3,35.1,37.9,34.5,37.9z" style=""></path><path fill="#143d59" d="M67.8,33.8c0,0-0.1-0.2-0.3-0.5c0.1-0.1-0.5-0.8-0.5-0.8c-1.7-2.4-6.3-7.4-16.7-7.4c-11.1,0-15.7,6-15.7,6   s-4.9-6-15.9-6c-11,0-17.4,8.5-17.4,8.5V73c0,1.4,1.1,2.2,2.2,2.2c6,0,4.7-6,15.3-6c10.5,0,13.5,6,15.8,6c2.3,0,5.3-6,15.8-6   c10.5,0,9.3,6,15.3,6c1,0,1.7-0.5,2-1.4c0.2-0.3,0.5-0.7,1-1.1l-0.9-0.9V33.8z M64.5,70.8C64.5,70.8,64.5,70.8,64.5,70.8   c0,0.8-1,1.1-1.5,0.5c-1.1-1.5-4.8-5.4-12.7-5.4c-11,0-15.7,5.9-15.7,5.9s-4.9-5.9-15.9-5.9c-8,0-11.6,3.8-12.7,5.3   c-0.4,0.6-1.5,0.4-1.5-0.4c0,0,0,0,0,0v-36c0,0,5.1-6.5,14.2-6.5c11.8,0,13.4,6.5,15.9,6.5c2.5,0,4.4-6.5,15.7-6.5   c10.9,0,14.2,6.5,14.2,6.5h0V70.8z" style=""></path><path fill="#143d59" d="M97.4,70.9l-1.9,1.8c0.9,0.9,1.2,1.6,1.3,1.6c0.7,0.4,1.6,0.3,2.2-0.2l0.3-0.3v-2.5h-1.5   C97.7,71.2,97.5,71,97.4,70.9z" style=""></path><path fill="#143d59" d="M70.8,68.1l1.1,2.4c1.2-0.6,2.5-1,3.9-1.3l-0.6-2.6C73.6,66.9,72.1,67.4,70.8,68.1z" style=""></path><path fill="#143d59" d="M88.4,69.1c1.4,0.3,2.7,0.8,3.9,1.4l1.2-2.4c-1.3-0.7-2.8-1.2-4.5-1.6L88.4,69.1z" style=""></path><path fill="#143d59" d="M79.8,65.9l0.2,2.6c1.4-0.1,2.9-0.1,4.3,0l0.2-2.6C82.9,65.8,81.3,65.8,79.8,65.9z" style=""></path><rect x="96.7" y="41.9" fill="#143d59" width="2.6" height="4.9" style=""></rect><path fill="#143d59" d="M75.2,28.5L74.5,26c-1.8,0.5-3.4,1.1-4.8,2l1.3,2.3C72.2,29.5,73.6,28.9,75.2,28.5z" style=""></path><path fill="#143d59" d="M99.2,32.6c0-0.1-0.2-0.5-0.6-1l-2.2,1.5c0.1,0.2,0.2,0.3,0.2,0.4v3.6h2.6v-3.9L99.2,32.6z" style=""></path><path fill="#143d59" d="M82.1,27.7C82.1,27.7,82.1,27.7,82.1,27.7c0.8,0,1.6,0,2.4,0.1l0.2-2.6c-0.8-0.1-1.7-0.1-2.6-0.1   c0,0,0,0,0,0c-0.8,0-1.7,0-2.5,0.1l0.2,2.6C80.5,27.7,81.3,27.7,82.1,27.7z" style=""></path><rect x="96.7" y="51.7" fill="#143d59" width="2.6" height="4.9" style=""></rect><path fill="#143d59" d="M89,28.5c1.6,0.4,3,1,4.2,1.7l1.3-2.3c-1.4-0.8-3-1.5-4.8-2L89,28.5z" style=""></path><rect x="96.7" y="61.5" fill="#143d59" width="2.6" height="4.9" style=""></rect><path fill="#143d59" d="M93.2,46.4l-7.1-7.1v3c0,0-12.5,2.6-15.1,13.5c5.4-5.7,15.1-5.3,15.1-5.3v3L93.2,46.4z" style=""></path></g><desc>Created with Snap</desc><defs></defs></g><g><g transform="matrix(1,0,0,-1,0,0)"><path d="M130 630L353 635Q453 635 486 622L486 573Q459 569 412 568Q365 568 312 567Q164 564 110 552Q93 472 94 443Q95 414 96 398Q100 359 100 306Q168 306 255 318Q343 330 391 335Q439 341 490 341L490 286L107 238L113 74Q212 74 315 83Q419 93 472 97Q526 102 586 102Q586 82 574 64Q550 32 531 45Q355 26 216 15Q78 4 30 0L34 638Q60 630 130 630ZM878 236L686 216Q636 216 636 242Q636 255 647 260Q659 265 687 269Q716 273 759 281Q803 289 851 294Q871 294 885 287Q905 277 905 263Q905 258 900 250Q896 242 878 236ZM989 664Q1063 680 1129 680Q1195 680 1246 675Q1298 670 1350 656Q1460 625 1486 572Q1493 561 1493 546Q1493 502 1416 451Q1365 417 1270 382Q1503 369 1586 314Q1632 285 1632 246Q1632 192 1556 134Q1473 72 1344 31Q1225 -7 1123 -7Q1045 -7 989 16Q987 80 984 148Q976 299 976 402Q976 506 983 618Q972 618 963 620Q954 623 954 640Q954 664 989 664ZM1055 299L1079 66Q1240 75 1343 104Q1446 134 1491 168Q1537 203 1537 235Q1537 277 1477 302Q1412 328 1304 328Q1197 328 1055 299ZM1172 615L1147 615Q1065 615 1055 598L1045 397Q1135 397 1264 440Q1348 469 1387 504Q1407 522 1407 541Q1407 560 1392 572Q1378 585 1355 593Q1333 601 1305 605Q1278 610 1252 612Q1212 615 1172 615ZM1706 470L1769 470Q1782 283 1791 37Q1785 6 1743 6Q1732 6 1720 10Q1709 15 1706 23L1706 470ZM1676 606Q1676 641 1717 641Q1744 641 1761 629Q1764 618 1764 607Q1764 597 1756 587Q1748 577 1732 577Q1716 577 1700 584Q1684 592 1676 606ZM1838 309L1840 580L1837 709Q1837 725 1848 734Q1859 743 1875 743Q1891 743 1904 734Q1917 726 1914 711L1921 279Q1984 363 2091 420Q2180 468 2247 468Q2306 468 2338 430Q2362 400 2362 350Q2362 301 2343 264Q2325 228 2295 194Q2265 161 2226 132Q2187 103 2147 80Q2071 36 1997 7Q1991 9 1977 8Q1963 7 1943 7Q1889 7 1848 20Q1838 115 1838 309ZM1924 89Q1924 78 1944 78Q1965 78 1995 86Q2025 94 2067 113Q2110 133 2153 164Q2253 235 2304 331Q2291 388 2226 388Q2167 388 2093 344Q1988 281 1943 188Q1924 151 1924 113Q1924 103 1924 97Q1924 91 1924 89ZM2427 388Q2425 442 2423 484Q2421 527 2420 547Q2420 568 2404 648Q2413 660 2421 671Q2430 682 2446 682Q2481 682 2500 387Q2510 216 2510 45Q2510 -1 2446 -1L2438 0Q2438 52 2435 133Q2432 214 2430 274Q2429 334 2427 388ZM2597 470L2660 470Q2673 283 2682 37Q2676 6 2634 6Q2623 6 2611 10Q2600 15 2597 23L2597 470ZM2567 606Q2567 641 2608 641Q2635 641 2652 629Q2655 618 2655 607Q2655 597 2647 587Q2639 577 2623 577Q2607 577 2591 584Q2575 592 2567 606ZM2750 190Q2750 308 2852 380Q2933 437 3047 449Q3053 449 3075 449Q3097 449 3134 436Q3216 408 3246 337Q3258 309 3258 289Q3258 270 3257 262Q3257 137 3162 65Q3074 -1 2942 -1Q2847 -1 2798 43Q2750 87 2750 190ZM2819 166Q2819 104 2852 82Q2877 66 2936 66Q2995 66 3040 75Q3085 84 3120 106Q3195 154 3195 255Q3195 315 3163 353Q3128 394 3071 394Q3032 387 2992 379Q2953 371 2918 348Q2842 299 2819 166ZM3397 401Q3533 448 3632 448Q3758 448 3800 382Q3819 351 3819 315Q3819 265 3787 212Q3756 159 3704 116Q3583 17 3410 -7Q3410 -18 3410 -43Q3411 -67 3411 -97Q3412 -127 3412 -161Q3413 -195 3414 -226Q3417 -303 3418 -314Q3420 -325 3420 -332Q3420 -357 3404 -370Q3388 -382 3362 -382Q3357 -382 3352 -382L3336 422Q3345 435 3360 434Q3375 433 3384 426Q3393 419 3397 401ZM3689 366Q3656 383 3618 383Q3581 383 3544 376Q3460 360 3420 305Q3402 279 3402 241Q3402 237 3402 233L3402 60Q3608 106 3694 188Q3744 235 3744 285Q3744 338 3689 366ZM4341 14Q4332 -3 4294 -3Q4257 -3 4257 24Q4257 142 4252 186Q4243 283 4214 290Q4142 304 4096 304Q4051 304 4021 276Q3992 249 3976 185Q3961 122 3954 7L3877 7Q3879 64 3879 113Q3879 162 3877 229Q3875 297 3872 377Q3867 469 3867 532Q3867 596 3875 649Q3885 668 3904 668Q3927 668 3940 651Q3953 635 3954 622L3949 457Q3949 364 3958 318Q4048 378 4144 378Q4175 378 4210 373Q4285 334 4308 290Q4319 267 4322 241Q4325 215 4326 182Q4332 68 4341 14ZM4405 470L4468 470Q4481 283 4490 37Q4484 6 4442 6Q4431 6 4419 10Q4408 15 4405 23L4405 470ZM4375 606Q4375 641 4416 641Q4443 641 4460 629Q4463 618 4463 607Q4463 597 4455 587Q4447 577 4431 577Q4415 577 4399 584Q4383 592 4375 606ZM4551 388Q4549 442 4547 484Q4545 527 4544 547Q4544 568 4528 648Q4537 660 4545 671Q4554 682 4570 682Q4605 682 4624 387Q4634 216 4634 45Q4634 -1 4570 -1L4562 0Q4562 52 4559 133Q4556 214 4554 274Q4553 334 4551 388ZM4689 133Q4689 149 4686 177Q4684 206 4682 240Q4680 274 4680 309Q4680 344 4686 373Q4699 438 4740 438Q4768 430 4777 418Q4787 406 4787 388Q4787 371 4778 345Q4745 258 4745 188Q4745 165 4748 139Q4764 72 4858 72Q4907 72 4951 89Q5035 120 5065 162Q5074 208 5074 242Q5074 277 5071 304Q5069 331 5065 363Q5062 396 5061 435Q5074 441 5086 441Q5099 441 5112 428Q5126 415 5135 379Q5145 343 5148 294Q5151 246 5151 194Q5152 142 5152 93Q5152 45 5156 10Q5144 -1 5133 -1Q5093 -1 5074 79Q5061 68 5030 52Q4964 16 4874 4Q4857 2 4836 2Q4815 2 4783 10Q4752 18 4724 47Q4696 76 4689 133ZM5556 258Q5666 258 5666 202Q5666 160 5605 104Q5514 21 5360 -29Q5353 -29 5344 -15Q5336 -1 5331 6Q5327 14 5325 16Q5440 54 5514 108Q5564 144 5564 167Q5564 190 5505 190Q5446 190 5332 162Q5280 164 5242 199Q5209 230 5209 261Q5209 293 5227 319Q5245 346 5275 369Q5305 392 5345 411Q5443 458 5548 458Q5579 458 5608 452Q5632 452 5636 431Q5640 410 5640 362Q5581 389 5507 389Q5415 389 5355 352Q5293 316 5291 258Q5291 230 5332 230L5405 238Q5499 258 5556 258Z" fill="#143d59" style=""></path></g></g></g></svg>